# xmcd
#
# Track frame offsets: 
#        150
#        9564
#        17601
#        29166
#        42060
#        50410
#        63942
#        72959
#        84509
#        95934
#        108548
#        120202
#        130705
#        147622
#        158116
#        170691
#
# Disc length: 2428 seconds
#
# Revision: 2
# Processed by: cddbd v1.5.2PL0 Copyright (c) Steve Scherf et al.
# Submitted via: ExactAudioCopy v1.1
#
DISCID=da097a10
DTITLE=Willie Nelson - Millenium Collection - Willie Nelson CD1
DYEAR=2000
DGENRE=Country
TTITLE0=Healing Hands Of Time
TTITLE1=Things To Remember
TTITLE2=End Of An Understanding
TTITLE3=A Moment Isn't Very Long
TTITLE4=You Wouldn't Cross A The Street
TTITLE5=Last Letter
TTITLE6=Right From Wrong
TTITLE7=I Don't Feel Anything
TTITLE8=Touch Me
TTITLE9=She's Not For You
TTITLE10=I'll Stay Around
TTITLE11=Blame It On The Times
TTITLE12=I Let My Mind Wonder
TTITLE13=I Feel Sorry For Him
TTITLE14=Any Old Arms Won't You
TTITLE15=Pages
EXTD=YEAR: 2000
EXTT0=
EXTT1=
EXTT2=
EXTT3=
EXTT4=
EXTT5=
EXTT6=
EXTT7=
EXTT8=
EXTT9=
EXTT10=
EXTT11=
EXTT12=
EXTT13=
EXTT14=
EXTT15=
PLAYORDER=
